<svg width="204" height="48" viewBox="0 0 204 48" fill="none" xmlns="http://www.w3.org/2000/svg">
<g clip-path="url(#clip0_497_5579)">
<path d="M70.4475 23.8763L78.8692 36.5988H73.3005L67.5257 27.5209L64.1914 31.908V36.5988H59.4133V12.5712H64.1914V26.0023L73.4382 12.5712H78.2505L70.4475 23.8763Z" fill="#060F26"/>
<path d="M95.4391 36.5988H92.4486L91.0737 34.2702L86.2956 36.8012C83.6372 36.8012 81.8497 35.8564 80.9331 33.9666C80.4748 33.0442 80.154 32.0542 79.9706 30.9968C79.8102 29.9169 79.73 28.8033 79.73 27.6559C79.73 26.486 79.7415 25.6311 79.7644 25.0911C79.7874 24.5288 79.8446 23.8876 79.9363 23.1676C80.0279 22.4252 80.154 21.8064 80.3143 21.3115C80.4977 20.8166 80.7497 20.3104 81.0706 19.7929C81.3915 19.2529 81.781 18.8255 82.2393 18.5106C83.2706 17.8132 84.6112 17.4644 86.2611 17.4644H90.9705L95.4391 17.1944V36.5988ZM90.9705 30.4568V21.4128H87.5673C86.3071 21.4128 85.4248 21.8853 84.9206 22.8301C84.4393 23.7751 84.1987 25.1924 84.1987 27.0823C84.1987 28.9495 84.4278 30.2657 84.8862 31.0306C85.3674 31.7954 86.2611 32.1779 87.5673 32.1779L90.9705 30.4568Z" fill="#060F26"/>
<path d="M125.591 36.5988H121.123V24.6186C121.123 23.4263 120.974 22.5939 120.676 22.1215C120.401 21.649 119.908 21.4128 119.198 21.4128L115.176 23.0663V36.5988H110.707V24.6186C110.707 22.4814 109.951 21.4128 108.439 21.4128L104.761 23.0663V36.5988H100.292V17.3294H103.626L104.657 19.6241L109.814 17.127C111.601 17.127 112.953 17.9819 113.87 19.6917L120.263 17.127C122.051 17.127 123.38 17.7232 124.251 18.9155C125.145 20.0853 125.591 21.6715 125.591 23.6738V36.5988Z" fill="#060F26"/>
<path d="M138.79 36.6325L134.906 36.5987C133.187 36.5987 131.881 36.1038 130.988 35.1138C130.117 34.124 129.681 32.9428 129.681 31.5705V11.2213H134.15V19.7254L139.478 17.2957C141.518 17.2957 143.018 17.8356 143.981 18.9154C144.829 19.8829 145.356 21.4465 145.562 23.6063C145.631 24.5062 145.666 25.6199 145.666 26.9472C145.666 33.404 143.374 36.6325 138.79 36.6325ZM135.284 32.8528H137.485C139.959 32.8528 141.197 30.8843 141.197 26.9472C141.197 24.9449 141.002 23.55 140.612 22.7627C140.245 21.9751 139.432 21.5815 138.172 21.5815L134.15 23.7075V31.3005C134.15 32.2005 134.528 32.7178 135.284 32.8528Z" fill="#060F26"/>
<path d="M154.107 36.5988H149.638V18.0381H154.107V36.5988Z" fill="#060F26"/>
<path d="M172.579 31.2668V31.773C172.441 33.4604 171.708 34.7314 170.379 35.5864C169.073 36.4413 167.434 36.8688 165.463 36.8688C162.553 36.8688 160.513 36.3513 159.344 35.3165C158.268 34.3715 157.729 32.9766 157.729 31.1318V30.7269H161.786C161.786 31.7617 162.061 32.4704 162.61 32.8529C163.16 33.2353 164.112 33.4266 165.463 33.4266C167.297 33.4266 168.214 32.7741 168.214 31.4693C168.214 30.3894 167.893 29.6694 167.252 29.3095C166.953 29.1295 166.575 28.9945 166.116 28.9045L162.645 28.3308C159.62 27.8584 158.108 26.0023 158.108 22.7627C158.108 20.9629 158.772 19.568 160.101 18.578C161.454 17.5656 163.16 17.0595 165.223 17.0595C169.921 17.0595 172.27 19.0505 172.27 23.0326V23.4713H168.386C168.34 22.4139 168.054 21.694 167.526 21.3115C166.999 20.929 166.254 20.7378 165.292 20.7378C164.353 20.7378 163.642 20.929 163.16 21.3115C162.679 21.6715 162.438 22.0765 162.438 22.5264C162.438 23.8088 162.965 24.5399 164.019 24.7199L168.18 25.4623C171.112 26.0023 172.579 27.9371 172.579 31.2668Z" fill="#060F26"/>
<path d="M184.712 36.5987H181.928C180.232 36.5987 178.938 36.1038 178.044 35.1138C177.173 34.124 176.737 32.9428 176.737 31.5705V21.4465H174.848V18.1056H176.737V14.326H181.206V18.1056H184.369V21.4465H181.206V31.3005C181.206 32.3579 181.722 32.8866 182.754 32.8866H184.712V36.5987Z" fill="#060F26"/>
<path d="M203.272 36.5988H200.282L198.907 34.2702L194.128 36.8012C191.47 36.8012 189.683 35.8564 188.766 33.9666C188.308 33.0442 187.987 32.0542 187.803 30.9968C187.643 29.9169 187.563 28.8033 187.563 27.6559C187.563 26.486 187.574 25.6311 187.597 25.0911C187.621 24.5288 187.678 23.8876 187.769 23.1676C187.86 22.4252 187.987 21.8064 188.148 21.3115C188.33 20.8166 188.582 20.3104 188.903 19.7929C189.224 19.2529 189.614 18.8255 190.072 18.5106C191.103 17.8132 192.444 17.4644 194.094 17.4644H198.803L203.272 17.1944V36.5988ZM198.803 30.4568V21.4128H195.401C194.139 21.4128 193.257 21.8853 192.754 22.8301C192.272 23.7751 192.032 25.1924 192.032 27.0823C192.032 28.9495 192.261 30.2657 192.719 31.0306C193.2 31.7954 194.094 32.1779 195.401 32.1779L198.803 30.4568Z" fill="#060F26"/>
<path d="M153.866 10.4853C153.549 10.1618 152.858 10 151.792 10C150.727 10 150.024 10.1618 149.684 10.4853C149.366 10.7872 149.207 11.4343 149.207 12.4264C149.207 13.4186 149.366 14.0764 149.684 14.3999C150.024 14.7235 150.716 14.8853 151.758 14.8853C152.823 14.8853 153.515 14.7343 153.833 14.4323C154.172 14.1088 154.342 13.4509 154.342 12.4588C154.342 11.4451 154.184 10.7872 153.866 10.4853Z" fill="url(#paint0_linear_497_5579)"/>
<path d="M0.0195394 47.8163C0.0194711 47.6493 0.0194134 47.5101 0.0193438 47.3431C0.0128951 31.7529 0.00644685 16.1626 9.98318e-06 0.600267C-0.000243433 -0.0122027 -0.000243386 -0.0122027 0.61477 0.0159774C4.97582 0.324634 8.58346 3.94579 8.64117 8.28882C8.72755 14.3579 8.67415 20.427 8.67664 26.4681C8.67672 26.6353 8.67679 26.8023 8.67683 26.9135C15.4391 20.1801 22.2013 13.4466 28.9636 6.71323C28.2367 6.71283 27.4261 6.71238 26.6432 6.51707C23.8195 5.84735 21.7499 3.45198 21.4971 0.584357C21.469 0.194583 21.4968 -0.000279267 22.0001 3.00388e-07C28.5134 0.031453 34.999 0.0350499 41.5123 0.0108227C41.9038 0.0110403 42.0436 0.0667967 42.0437 0.512232C42.0185 6.99886 42.0212 13.4577 42.0517 19.9444C42.052 20.3898 41.9681 20.5011 41.4929 20.473C38.4179 20.2764 35.6492 17.658 35.3684 14.5676C35.3123 14.0386 35.312 13.5096 35.2839 13.0363C23.5758 24.6669 11.8675 36.2973 0.187313 47.9279C0.131393 47.8999 0.0754599 47.8443 0.0195394 47.8163Z" fill="url(#paint1_linear_497_5579)"/>
<path d="M41.9838 47.9725C38.8528 47.9711 35.7779 48.0531 32.7308 47.9404C30.5783 47.8558 28.7328 46.9084 27.1945 45.3767C24.2297 42.3966 21.2372 39.4444 18.2725 36.4921C18.0208 36.2415 18.0487 36.1301 18.2722 35.9075C20.1164 34.0711 21.9884 32.2346 23.8325 30.3981C24 30.2311 24.1118 30.1199 24.3636 30.3427C30.2089 36.1636 36.0544 41.9845 41.8999 47.8054C41.8999 47.8333 41.9279 47.8889 41.9838 47.9725Z" fill="url(#paint2_linear_497_5579)"/>
</g>
<defs>
<linearGradient id="paint0_linear_497_5579" x1="151.775" y1="10" x2="151.775" y2="14.8853" gradientUnits="userSpaceOnUse">
<stop stop-color="#00DFC4"/>
<stop offset="0.740331" stop-color="#00B5FF"/>
</linearGradient>
<linearGradient id="paint1_linear_497_5579" x1="21.0216" y1="-0.000542982" x2="20.995" y2="47.9394" gradientUnits="userSpaceOnUse">
<stop stop-color="#00DFC4"/>
<stop offset="0.740331" stop-color="#00B5FF"/>
</linearGradient>
<linearGradient id="paint2_linear_497_5579" x1="30.033" y1="30.2206" x2="30.0248" y2="47.997" gradientUnits="userSpaceOnUse">
<stop stop-color="#00DFC4"/>
<stop offset="0.740331" stop-color="#00B5FF"/>
</linearGradient>
<clipPath id="clip0_497_5579">
<rect width="204" height="48" fill="white"/>
</clipPath>
</defs>
</svg>
